<svg aria-hidden="true" style="position: absolute; width: 0; height: 0; overflow: hidden;" version="1.1" xmlns="http://www.w3.org/2000/svg" xmlns:xlink="http://www.w3.org/1999/xlink">
<defs>
<symbol id="icon-cup" viewBox="0 0 32 32">
<path d="M5.333 28v-2.667h21.333v2.667h-21.333zM10.667 22.667c-1.467 0-2.722-0.522-3.767-1.567s-1.567-2.3-1.567-3.767v-13.333h21.333c0.733 0 1.361 0.261 1.883 0.783s0.783 1.15 0.783 1.883v4c0 0.733-0.261 1.361-0.783 1.883s-1.15 0.783-1.883 0.783h-2.667v4c0 1.467-0.522 2.722-1.567 3.767s-2.3 1.567-3.767 1.567h-8zM10.667 20h8c0.733 0 1.361-0.261 1.883-0.783s0.783-1.15 0.783-1.883v-10.667h-13.333v10.667c0 0.733 0.261 1.361 0.783 1.883s1.15 0.783 1.883 0.783zM24 10.667h2.667v-4h-2.667v4z"></path>
</symbol>
<symbol id="icon-redeem" viewBox="0 0 32 32">
<path d="M5.333 22.667v2.667h21.333v-2.667h-21.333zM5.333 8h2.933c-0.111-0.2-0.183-0.411-0.217-0.633s-0.050-0.456-0.050-0.7c0-1.111 0.389-2.056 1.167-2.833s1.722-1.167 2.833-1.167c0.667 0 1.283 0.172 1.85 0.517s1.061 0.772 1.483 1.283l0.667 0.867 0.667-0.867c0.4-0.533 0.889-0.967 1.467-1.3s1.2-0.5 1.867-0.5c1.111 0 2.056 0.389 2.833 1.167s1.167 1.722 1.167 2.833c0 0.244-0.017 0.478-0.050 0.7s-0.106 0.433-0.217 0.633h2.933c0.733 0 1.361 0.261 1.883 0.783s0.783 1.15 0.783 1.883v14.667c0 0.733-0.261 1.361-0.783 1.883s-1.15 0.783-1.883 0.783h-21.333c-0.733 0-1.361-0.261-1.883-0.783s-0.783-1.15-0.783-1.883v-14.667c0-0.733 0.261-1.361 0.783-1.883s1.15-0.783 1.883-0.783zM5.333 18.667h21.333v-8h-6.8l2.8 3.8-2.133 1.533-4.533-6.133-4.533 6.133-2.133-1.533 2.733-3.8h-6.733v8zM12 8c0.378 0 0.694-0.128 0.95-0.383s0.383-0.572 0.383-0.95c0-0.378-0.128-0.694-0.383-0.95s-0.572-0.383-0.95-0.383c-0.378 0-0.694 0.128-0.95 0.383s-0.383 0.572-0.383 0.95c0 0.378 0.128 0.694 0.383 0.95s0.572 0.383 0.95 0.383zM20 8c0.378 0 0.694-0.128 0.95-0.383s0.383-0.572 0.383-0.95c0-0.378-0.128-0.694-0.383-0.95s-0.572-0.383-0.95-0.383c-0.378 0-0.694 0.128-0.95 0.383s-0.383 0.572-0.383 0.95c0 0.378 0.128 0.694 0.383 0.95s0.572 0.383 0.95 0.383z"></path>
</symbol>
<symbol id="icon-sell" viewBox="0 0 32 32">
<path d="M19 28.533c-0.511 0.511-1.144 0.767-1.9 0.767s-1.389-0.256-1.9-0.767l-11.733-11.733c-0.244-0.244-0.439-0.533-0.583-0.867s-0.217-0.689-0.217-1.067v-9.533c0-0.733 0.261-1.361 0.783-1.883s1.15-0.783 1.883-0.783h9.533c0.378 0 0.733 0.072 1.067 0.217s0.622 0.339 0.867 0.583l11.733 11.767c0.511 0.511 0.767 1.139 0.767 1.883s-0.256 1.372-0.767 1.883l-9.533 9.533zM17.1 26.667l9.533-9.533-11.767-11.8h-9.533v9.533l11.767 11.8zM8.667 10.667c0.556 0 1.028-0.194 1.417-0.583s0.583-0.861 0.583-1.417c0-0.556-0.194-1.028-0.583-1.417s-0.861-0.583-1.417-0.583c-0.556 0-1.028 0.194-1.417 0.583s-0.583 0.861-0.583 1.417c0 0.556 0.194 1.028 0.583 1.417s0.861 0.583 1.417 0.583z"></path>
</symbol>
<symbol id="icon-person" viewBox="0 0 32 32">
<path d="M16 16c-1.467 0-2.722-0.522-3.767-1.567s-1.567-2.3-1.567-3.767c0-1.467 0.522-2.722 1.567-3.767s2.3-1.567 3.767-1.567c1.467 0 2.722 0.522 3.767 1.567s1.567 2.3 1.567 3.767c0 1.467-0.522 2.722-1.567 3.767s-2.3 1.567-3.767 1.567zM5.333 26.667v-3.733c0-0.756 0.195-1.45 0.584-2.084s0.905-1.116 1.549-1.449c1.378-0.689 2.778-1.206 4.2-1.551s2.867-0.516 4.333-0.516 2.911 0.172 4.333 0.516c1.422 0.345 2.822 0.862 4.2 1.551 0.644 0.333 1.161 0.816 1.549 1.449s0.584 1.328 0.584 2.084v3.733h-21.333zM8 24h16v-1.067c0-0.244-0.061-0.467-0.183-0.667s-0.284-0.356-0.484-0.467c-1.2-0.6-2.411-1.050-3.633-1.351s-2.456-0.449-3.7-0.449-2.478 0.15-3.7 0.449c-1.222 0.3-2.433 0.751-3.633 1.351-0.2 0.111-0.361 0.267-0.483 0.467s-0.184 0.422-0.184 0.667v1.067zM16 13.333c0.733 0 1.361-0.261 1.884-0.784s0.783-1.149 0.783-1.883-0.261-1.361-0.783-1.883c-0.523-0.523-1.151-0.784-1.884-0.784s-1.361 0.261-1.883 0.784c-0.523 0.522-0.784 1.149-0.784 1.883s0.261 1.361 0.784 1.883c0.522 0.523 1.149 0.784 1.883 0.784z"></path>
</symbol>
</defs>
</svg>
