<svg xmlns="http://www.w3.org/2000/svg" aria-hidden="true" style="position:absolute;width:0;height:0;overflow:hidden"><defs><symbol id="icon-logo" viewBox="0 0 32 32"><path d="M.684 5.044c.134-.456.509-.643.976-.714 6.606-1 13.073 3.075 14.998 9.465.622 2.063.718 4.154.304 6.269-.03.155-.048.315-.048.474-.003 2.095-.001 4.19-.003 6.285-.001.614-.358 1.002-.906.998-.528-.004-.886-.382-.888-.954-.004-1.167-.002-2.334-.002-3.502v-2.16c-.891-.241-1.762-.448-2.615-.713-2.074-.643-3.974-1.595-5.483-3.21-1.118-1.196-1.822-2.63-2.381-4.146-.5-1.354-.966-2.722-1.506-4.06A9.14 9.14 0 0 0 1.016 5.95c-.138-.134-.459-.471-.333-.906zM18.709 23.242c0-.179.002-.357 0-.534-.015-1.186.022-2.366.181-3.547.254-1.89.057-3.761-.456-5.595-.058-.21-.03-.342.125-.496 2.596-2.558 5.714-3.753 9.347-3.537.909.054 1.809.272 2.708.437.386.07.638.33.712.721a.835.835 0 0 1-.34.871c-1.286.949-2.158 2.222-2.866 3.626-.403.801-.803 1.603-1.194 2.41-1.389 2.859-3.65 4.621-6.727 5.358-.436.104-.875.194-1.314.286-.046.01-.098.001-.176.001z"/></symbol></defs></svg>