<?xml version="1.0" encoding="utf-8"?>
<!-- Generator: Adobe Illustrator 27.0.0, SVG Export Plug-In . SVG Version: 6.00 Build 0)  -->
<svg version="1.1" id="Слой_1" xmlns="http://www.w3.org/2000/svg" xmlns:xlink="http://www.w3.org/1999/xlink" x="0px" y="0px"
	 viewBox="0 0 1700 400" style="enable-background:new 0 0 1700 400;" xml:space="preserve">
<g>
	<g>
		<path d="M29.2,63.1c1.7-5.7,6.4-8,12.2-8.9C124,41.6,204.8,92.6,228.9,172.4c7.8,25.8,9,51.9,3.8,78.4c-0.4,1.9-0.6,3.9-0.6,5.9
			c0,26.2,0,52.4,0,78.6c0,7.7-4.5,12.5-11.3,12.5c-6.6,0-11.1-4.8-11.1-11.9c-0.1-14.6,0-29.2,0-43.8c0-9.1,0-18.2,0-27
			c-11.1-3-22-5.6-32.7-8.9c-25.9-8-49.7-19.9-68.5-40.1c-14-14.9-22.8-32.9-29.8-51.8c-6.2-16.9-12.1-34-18.8-50.8
			c-6-14.8-14.9-27.8-26.4-39.1C31.7,72.7,27.6,68.5,29.2,63.1z"/>
		<path d="M254.5,290.5c0-2.2,0-4.5,0-6.7c-0.2-14.8,0.3-29.6,2.3-44.3c3.2-23.6,0.7-47-5.7-69.9c-0.7-2.6-0.4-4.3,1.6-6.2
			c32.4-32,71.4-46.9,116.8-44.2c11.4,0.7,22.6,3.4,33.9,5.5c4.8,0.9,8,4.1,8.9,9c0.8,4.4-0.6,8.2-4.2,10.9
			c-16.1,11.9-27,27.8-35.8,45.3c-5,10-10,20-14.9,30.1c-17.4,35.7-45.6,57.8-84.1,67c-5.5,1.3-10.9,2.4-16.4,3.6
			C256.1,290.6,255.5,290.5,254.5,290.5z"/>
	</g>
	<g>
		<polygon points="723.2,83.6 540.3,83.6 540.3,123.7 607.5,123.7 607.5,315.6 656,315.6 656,123.7 723.2,123.7 		"/>
		<path d="M828.4,150.4c-12.3-7.1-26.8-10.7-43.6-10.7c-16.8,0-31.4,3.7-43.8,11c-12.4,7.3-22,17.7-28.9,31.2
			c-6.9,13.5-10.3,29.3-10.3,47.7v0.2c0,18.3,3.4,34.2,10.3,47.6c6.9,13.4,16.6,23.7,29.3,30.9c12.6,7.2,27.8,10.9,45.3,10.9
			c12.3,0,23.1-1.6,32.2-4.8c9.2-3.2,16.9-7.5,23.3-12.9c6.4-5.4,11.4-11.3,15.2-17.7c3.8-6.4,6.3-12.8,7.6-19.1l0.5-1.8h-43.1
			l-0.3,1c-1.1,3.2-3.1,6.4-6.1,9.5c-3,3.1-6.9,5.7-11.6,7.7c-4.7,2-10.3,3.1-16.7,3.1c-8.1,0-15.2-1.8-21.1-5.4
			c-5.9-3.6-10.4-8.8-13.6-15.5c-3-6.3-4.5-13.8-4.7-22.5h118.6v-14.6c0-17.4-3.4-32.5-10-45.5C850.2,167.6,840.7,157.6,828.4,150.4
			z M766.2,180.1c5.6-3.5,12.1-5.3,19.4-5.3c7.3,0,13.7,1.7,19.2,5.1c5.5,3.4,9.8,8.5,12.9,15.4c2.1,4.5,3.4,9.7,4.1,15.7h-73
			c0.7-5.8,2.1-10.9,4.2-15.4C756.2,188.8,760.6,183.6,766.2,180.1z"/>
		<path d="M1006.4,146.9c-10.9-4.8-23.8-7.2-38.7-7.2c-15.1,0-28.2,2.3-39.1,7c-11,4.7-19.6,11.1-25.7,19.4
			c-6.2,8.3-9.7,17.7-10.7,28.3l-0.2,1.9h43.1l0.3-1.4c1.2-5.6,4.3-10.2,9.5-13.7c5.1-3.6,12.1-5.4,20.9-5.4
			c9.2,0,16.2,2.2,21.1,6.6c4.8,4.4,7.2,10.4,7.2,18v10.5l-42.6,2.6c-14.3,1-26.4,3.6-36.4,7.9c-10,4.3-17.7,10.2-22.9,17.6
			c-5.3,7.4-7.9,16.4-7.9,26.9v0.3c0,10.1,2.4,19,7.3,26.9c4.9,7.9,11.7,14,20.4,18.5c8.7,4.4,18.8,6.7,30.3,6.7
			c7.5,0,14.5-1.1,21-3.4c6.5-2.3,12.2-5.5,17.3-9.8c5-4.3,9.2-9.3,12.5-15.1h1v25.6h46.9V197.4c0-11.6-3-21.7-9.1-30.4
			C1025.9,158.4,1017.4,151.7,1006.4,146.9z M989.3,268.7c-3.2,4.8-7.5,8.5-13,11.3c-5.5,2.7-11.8,4.1-18.7,4.1
			c-8.1,0-14.6-1.8-19.5-5.4c-4.8-3.6-7.2-8.5-7.2-14.9v-0.3c0-6.1,2.4-11,7.1-14.6c4.7-3.6,11.6-5.7,20.6-6.3l35.5-2.4v12.5
			C994.1,258.6,992.5,264,989.3,268.7z"/>
		<path d="M1135.9,275l48.5-44.2c13.4-12.3,24-22.9,31.7-31.8c7.7-8.9,13.3-17.3,16.6-25.3c3.4-8,5.1-16.7,5.1-26.1v-0.3
			c0-13.2-3.5-24.8-10.4-35c-7-10.1-16.7-18.1-29.1-23.9c-12.4-5.8-26.8-8.7-43.2-8.7c-16.3,0-30.9,3.2-43.8,9.5
			c-12.9,6.3-23.1,15.1-30.5,26.3c-7.4,11.2-11.1,24.1-11.1,38.7v1.3h45l0.2-1.4c0.2-7,2-13.2,5.5-18.6c3.4-5.5,8.1-9.8,14.1-13
			c6-3.2,13-4.8,20.9-4.8c6.9,0,12.9,1.4,18.2,4.2c5.2,2.8,9.4,6.6,12.4,11.5c3,4.9,4.5,10.5,4.5,17v0.3c0,5.4-0.9,10.5-2.8,15.4
			c-1.9,4.9-5.4,10.4-10.5,16.6c-5.1,6.2-12.7,14-22.7,23.3l-82,76.7v33.3H1241V277h-105.1V275z"/>
		<path d="M1378.4,227.8h52.9l-0.2,3.2c-0.3,9.5-2.8,17.9-7.6,25c-4.7,7.1-11.1,12.6-19.1,16.6c-8,3.9-17.3,5.9-27.8,5.9
			c-9.6,0-18.4-1.8-26.1-5.5c-7.8-3.6-14.4-8.9-19.9-15.8c-5.5-6.9-9.7-15.2-12.6-25.2c-2.9-9.9-4.3-21.1-4.3-33.5v-0.2
			c0-16.4,2.4-30.4,7.3-42c4.9-11.6,11.9-20.4,21.1-26.5c9.2-6.1,20.1-9.2,32.9-9.2c13.1,0,24.1,3.1,33.1,9.4
			c9,6.3,15.4,15,19.3,26.1l0.5,1.8h48.9l-0.5-2.4c-2.6-14.6-8.3-27.6-17.3-39c-9-11.4-20.6-20.4-34.8-27.1
			c-14.3-6.6-30.7-10-49.3-10c-22.6,0-42.2,4.8-58.8,14.3c-16.6,9.5-29.4,23.2-38.4,40.9c-9,17.7-13.5,39-13.5,63.9v0.2
			c0,18.9,2.6,35.8,7.7,50.7c5.1,14.9,12.6,27.6,22.3,38c9.7,10.4,21.4,18.3,35.2,23.8c13.8,5.5,29.3,8.2,46.7,8.2
			c16.1,0,30.5-2.3,43.2-6.9c12.8-4.6,23.5-11.3,32.4-20.1c8.8-8.8,15.6-19.5,20.3-32c4.7-12.5,7-26.7,7-42.4v-26.7h-100.3V227.8z"
			/>
		<path d="M1660.5,181.1c-7.1-13.3-17-23.6-29.8-30.7c-12.8-7.1-27.8-10.7-45.1-10.7c-17.1,0-32.1,3.6-44.8,10.8
			c-12.8,7.2-22.7,17.4-29.8,30.8c-7.1,13.3-10.7,29.3-10.7,47.8v0.3c0,18.6,3.5,34.7,10.5,48.1c7,13.5,16.9,23.7,29.7,30.9
			c12.8,7.1,27.9,10.7,45.3,10.7c17.4,0,32.4-3.6,45.2-10.7c12.8-7.1,22.6-17.4,29.7-30.8c7-13.4,10.5-29.5,10.5-48.2v-0.3
			C1671.1,210.5,1667.6,194.5,1660.5,181.1z M1623.2,229.4c0,11.3-1.5,20.8-4.6,28.7c-3.1,7.9-7.4,13.9-12.9,18
			c-5.6,4.1-12.2,6.2-19.8,6.2c-7.7,0-14.4-2.1-20.1-6.2c-5.7-4.1-10-10.1-13.1-18c-3.1-7.9-4.6-17.4-4.6-28.7v-0.3
			c0-11,1.6-20.5,4.7-28.3c3.1-7.8,7.5-13.8,13.1-18c5.6-4.2,12.2-6.3,19.7-6.3c7.6,0,14.2,2.1,19.9,6.2c5.6,4.1,10,10.1,13.1,18
			c3.1,7.9,4.7,17.3,4.7,28.4V229.4z"/>
	</g>
</g>
</svg>
